0
SECTION
2
HEADER
9
$ACADVER
1
AC1015
9
$INSUNITS
70
4
0
ENDSEC
0
SECTION
2
TABLES
0
TABLE
2
LAYER
0
LAYER
2
WALLS
70
0
62
7
0
LAYER
2
GRID
70
0
62
8
0
LAYER
2
TEXT
70
0
62
1
0
ENDTAB
0
ENDSEC
0
SECTION
2
ENTITIES
0
LWPOLYLINE
8
WALLS
90
4
70
1
10
0
20
0
10
10000
20
0
10
10000
20
6000
10
0
20
6000
0
LINE
8
WALLS
10
4000
20
0
11
4000
21
6000
0
CIRCLE
8
WALLS
10
7000
20
3000
40
600
0
ARC
8
WALLS
10
2000
20
3000
40
800
50
0
51
180
0
LINE
8
GRID
10
0
20
1000
11
10000
21
1000
0
LINE
8
GRID
10
0
20
2000
11
10000
21
2000
0
LINE
8
GRID
10
0
20
3000
11
10000
21
3000
0
LINE
8
GRID
10
0
20
4000
11
10000
21
4000
0
LINE
8
GRID
10
0
20
5000
11
10000
21
5000
0
TEXT
8
TEXT
10
1000
20
5500
40
250
1
HALL A
0
TEXT
8
TEXT
10
6500
20
2000
40
250
1
STAGE
0
ENDSEC
0
EOF
